<svg id="Frame" xmlns="http://www.w3.org/2000/svg" width="36" height="36" viewBox="0 0 36 36">
  <path id="Vector" d="M0,0H36V36H0Z" fill="none"/>
  <path id="Vector-2" data-name="Vector" d="M0,0H9" transform="translate(13.5 18.001)" fill="none" stroke="#4b5563" stroke-linecap="round" stroke-linejoin="round" stroke-width="2.5"/>
  <path id="Vector-3" data-name="Vector" d="M0,0H9" transform="translate(13.5 22.501)" fill="none" stroke="#4b5563" stroke-linecap="round" stroke-linejoin="round" stroke-width="2.5"/>
  <path id="Vector-4" data-name="Vector" d="M1.125,0h20.25A1.125,1.125,0,0,1,22.5,1.125V22.5a3.375,3.375,0,0,1-3.375,3.375H3.375A3.375,3.375,0,0,1,0,22.5V1.125A1.125,1.125,0,0,1,1.125,0Z" transform="translate(6.75 5.626)" fill="none" stroke="#4b5563" stroke-linecap="round" stroke-linejoin="round" stroke-width="2.5"/>
  <path id="Vector-5" data-name="Vector" d="M0,0V4.5" transform="translate(11.25 3.376)" fill="none" stroke="#4b5563" stroke-linecap="round" stroke-linejoin="round" stroke-width="2.5"/>
  <path id="Vector-6" data-name="Vector" d="M0,0V4.5" transform="translate(18 3.376)" fill="none" stroke="#4b5563" stroke-linecap="round" stroke-linejoin="round" stroke-width="2.5"/>
  <path id="Vector-7" data-name="Vector" d="M0,0V4.5" transform="translate(24.75 3.376)" fill="none" stroke="#4b5563" stroke-linecap="round" stroke-linejoin="round" stroke-width="2.5"/>
</svg>
