<svg id="Frame" xmlns="http://www.w3.org/2000/svg" width="36" height="36" viewBox="0 0 36 36">
  <path id="Vector" d="M0,0H36V36H0Z" fill="none"/>
  <path id="Vector-2" data-name="Vector" d="M22.455,7.065l-8-6.222a4,4,0,0,0-4.911,0l-8,6.222A4,4,0,0,0,0,10.222v10.8a3,3,0,0,0,3,3H21a3,3,0,0,0,3-3v-10.8A4,4,0,0,0,22.455,7.065Z" transform="translate(6.045 6)" fill="none" stroke="#4b5563" stroke-linecap="round" stroke-linejoin="round" stroke-width="2.5"/>
  <path id="Vector-3" data-name="Vector" d="M12,0A12.753,12.753,0,0,1,0,0" transform="translate(12 22.5)" fill="none" stroke="#4b5563" stroke-linecap="round" stroke-linejoin="round" stroke-width="2.5"/>
</svg>
