<svg width="18" height="16" viewBox="0 0 18 16" fill="none" xmlns="http://www.w3.org/2000/svg">
<path d="M16.2 3.36842H14.238C14.337 3.10737 14.4 2.82105 14.4 2.52632C14.4 1.12842 13.194 0 11.7 0C10.755 0 9.936 0.454737 9.45 1.13684L9 1.70105L8.55 1.12842C8.064 0.454737 7.245 0 6.3 0C4.806 0 3.6 1.12842 3.6 2.52632C3.6 2.82105 3.663 3.10737 3.762 3.36842H1.8C0.801 3.36842 0.00899999 4.11789 0.00899999 5.05263L0 14.3158C0 15.2505 0.801 16 1.8 16H16.2C17.199 16 18 15.2505 18 14.3158V5.05263C18 4.11789 17.199 3.36842 16.2 3.36842ZM11.7 1.68421C12.195 1.68421 12.6 2.06316 12.6 2.52632C12.6 2.98947 12.195 3.36842 11.7 3.36842C11.205 3.36842 10.8 2.98947 10.8 2.52632C10.8 2.06316 11.205 1.68421 11.7 1.68421ZM6.3 1.68421C6.795 1.68421 7.2 2.06316 7.2 2.52632C7.2 2.98947 6.795 3.36842 6.3 3.36842C5.805 3.36842 5.4 2.98947 5.4 2.52632C5.4 2.06316 5.805 1.68421 6.3 1.68421ZM16.2 14.3158H1.8V12.6316H16.2V14.3158ZM16.2 10.1053H1.8V5.05263H6.372L4.5 7.43579L5.958 8.42105L8.1 5.69263L9 4.54737L9.9 5.69263L12.042 8.42105L13.5 7.43579L11.628 5.05263H16.2V10.1053Z" fill="#003566"/>
</svg>
